<?xml version="1.0" encoding="UTF-8" standalone="no"?>
<svg
   xmlns:dc="http://purl.org/dc/elements/1.1/"
   xmlns:cc="http://creativecommons.org/ns#"
   xmlns:rdf="http://www.w3.org/1999/02/22-rdf-syntax-ns#"
   xmlns:svg="http://www.w3.org/2000/svg"
   xmlns="http://www.w3.org/2000/svg"
   xmlns:sodipodi="http://sodipodi.sourceforge.net/DTD/sodipodi-0.dtd"
   xmlns:inkscape="http://www.inkscape.org/namespaces/inkscape"
   viewBox="0 0 32 32"
   version="1.1"
   id="svg5"
   sodipodi:docname="source-operator.svg"
   inkscape:version="0.92.4 5da689c313, 2019-01-14">
  <metadata
     id="metadata11">
    <rdf:RDF>
      <cc:Work
         rdf:about="">
        <dc:format>image/svg+xml</dc:format>
        <dc:type
           rdf:resource="http://purl.org/dc/dcmitype/StillImage" />
        <dc:title />
      </cc:Work>
    </rdf:RDF>
  </metadata>
  <defs
     id="defs9" />
  <sodipodi:namedview
     pagecolor="#ffffff"
     bordercolor="#666666"
     borderopacity="1"
     objecttolerance="10"
     gridtolerance="10"
     guidetolerance="10"
     inkscape:pageopacity="0"
     inkscape:pageshadow="2"
     inkscape:window-width="1364"
     inkscape:window-height="732"
     id="namedview7"
     showgrid="false"
     showguides="false"
     inkscape:zoom="5.6568545"
     inkscape:cx="-7.1441207"
     inkscape:cy="17.966267"
     inkscape:window-x="0"
     inkscape:window-y="18"
     inkscape:window-maximized="0"
     inkscape:current-layer="text4748" />
  <style
     type="text/css"
     id="current-color-scheme">
        .ColorScheme-Text {
            color:#232629;
        }
    </style>
  <g
     aria-label="∧"
     style="font-style:normal;font-variant:normal;font-weight:normal;font-stretch:normal;font-size:26.66666603px;line-height:125%;font-family:Sans;-inkscape-font-specification:'Sans, Normal';font-variant-ligatures:normal;font-variant-caps:normal;font-variant-numeric:normal;font-feature-settings:normal;text-align:start;letter-spacing:0px;word-spacing:0px;writing-mode:lr-tb;text-anchor:start;fill:#000000;fill-opacity:1;stroke:none;stroke-width:1px;stroke-linecap:butt;stroke-linejoin:miter;stroke-opacity:1"
     id="text4523">
    <g
       aria-label="S"
       style="font-style:normal;font-weight:normal;font-size:40px;line-height:125%;font-family:Sans;letter-spacing:0px;word-spacing:0px;fill:#000000;fill-opacity:1;stroke:none;stroke-width:1px;stroke-linecap:butt;stroke-linejoin:miter;stroke-opacity:1"
       id="text4748">
      <path
         d="m 25.3,22.360001 q 0,3.8 -2.76,6.08 -2.72,2.24 -7.76,2.24 -4.52,0 -8.0799999,-1.72 v -5.64 q 2.04,0.88 4.1999999,1.64 2.2,0.72 4.36,0.72 2.24,0 3.16,-0.84 0.96,-0.88 0.96,-2.2 0,-1.08 -0.76,-1.84 -0.72,-0.76 -1.96,-1.4 -1.24,-0.68 -2.84,-1.44 -1,-0.48 -2.16,-1.12 -1.16,-0.68 -2.2399999,-1.64 -1.04,-1 -1.72,-2.4 -0.68,-1.4 -0.68,-3.3600003 0,-3.84 2.6,-5.96 2.5999999,-2.16 7.0799999,-2.16 2.24,0 4.24,0.52 2.04,0.52 4.24,1.48 l -1.96,4.72 q -1.96,-0.8 -3.52,-1.24 -1.56,-0.44 -3.2,-0.44 -1.72,0 -2.64,0.8 -0.92,0.8 -0.92,2.08 0,1.5200003 1.36,2.4000003 1.36,0.88 4.04,2.16 2.2,1.04 3.72,2.16 1.56,1.12 2.4,2.64 0.84,1.52 0.84,3.76 z"
         style="font-style:normal;font-variant:normal;font-weight:bold;font-stretch:normal;font-size:40px;font-family:Sans;-inkscape-font-specification:'Sans, Bold';font-variant-ligatures:normal;font-variant-caps:normal;font-variant-numeric:normal;font-feature-settings:normal;text-align:start;writing-mode:lr-tb;text-anchor:start"
         id="path4750" />
    </g>
  </g>
</svg>
