<?xml version="1.0" encoding="UTF-8" standalone="no"?>
<svg
   xmlns:dc="http://purl.org/dc/elements/1.1/"
   xmlns:cc="http://creativecommons.org/ns#"
   xmlns:rdf="http://www.w3.org/1999/02/22-rdf-syntax-ns#"
   xmlns:svg="http://www.w3.org/2000/svg"
   xmlns="http://www.w3.org/2000/svg"
   xmlns:sodipodi="http://sodipodi.sourceforge.net/DTD/sodipodi-0.dtd"
   xmlns:inkscape="http://www.inkscape.org/namespaces/inkscape"
   viewBox="0 0 32 32"
   version="1.1"
   id="svg5"
   sodipodi:docname="xor-operator.svg"
   inkscape:version="0.92.4 5da689c313, 2019-01-14">
  <metadata
     id="metadata11">
    <rdf:RDF>
      <cc:Work
         rdf:about="">
        <dc:format>image/svg+xml</dc:format>
        <dc:type
           rdf:resource="http://purl.org/dc/dcmitype/StillImage" />
        <dc:title />
      </cc:Work>
    </rdf:RDF>
  </metadata>
  <defs
     id="defs9" />
  <sodipodi:namedview
     pagecolor="#ffffff"
     bordercolor="#666666"
     borderopacity="1"
     objecttolerance="10"
     gridtolerance="10"
     guidetolerance="10"
     inkscape:pageopacity="0"
     inkscape:pageshadow="2"
     inkscape:window-width="1364"
     inkscape:window-height="732"
     id="namedview7"
     showgrid="false"
     showguides="false"
     inkscape:zoom="11.313709"
     inkscape:cx="12.325433"
     inkscape:cy="15.055336"
     inkscape:window-x="0"
     inkscape:window-y="18"
     inkscape:window-maximized="0"
     inkscape:current-layer="svg5" />
  <style
     type="text/css"
     id="current-color-scheme">
        .ColorScheme-Text {
            color:#232629;
        }
    </style>
  <g
     aria-label="⊕"
     style="font-style:normal;font-variant:normal;font-weight:normal;font-stretch:normal;font-size:26.66666603px;line-height:125%;font-family:Sans;-inkscape-font-specification:'Sans, Normal';font-variant-ligatures:normal;font-variant-caps:normal;font-variant-numeric:normal;font-feature-settings:normal;text-align:start;letter-spacing:0px;word-spacing:0px;writing-mode:lr-tb;text-anchor:start;fill:#000000;fill-opacity:1;stroke:none;stroke-width:1px;stroke-linecap:butt;stroke-linejoin:miter;stroke-opacity:1"
     id="text4523">
    <path
       d="M 20.427083,5.2975267 Q 18.368489,4.4342455 16,4.4342455 q -2.36849,0 -4.427083,0.8632812 -2.0364585,0.8632813 -3.7187502,2.5455729 -1.704427,1.704427 -2.5455728,3.7408854 -0.8411458,2.036458 -0.8411458,4.449219 0,2.346354 0.8411458,4.382812 0.8411458,2.036458 2.5455728,3.740885 1.6822917,1.682292 3.7187502,2.545573 2.058593,0.863281 4.427083,0.863281 2.368489,0 4.427083,-0.863281 2.036458,-0.863281 3.71875,-2.545573 1.704427,-1.704427 2.545573,-3.740885 0.841146,-2.036458 0.841146,-4.382812 0,-2.412761 -0.841146,-4.449219 Q 25.85026,9.5475266 24.145833,7.8430996 22.463541,6.160808 20.427083,5.2975267 Z M 10.311198,2.2207039 Q 12.945313,1.1139331 16,1.1139331 q 3.054687,0 5.688802,1.1067708 2.634114,1.1067708 4.803385,3.2760416 2.191406,2.1914062 3.276042,4.8255205 1.084635,2.611979 1.084635,5.710938 0,3.032552 -1.084635,5.666666 -1.084636,2.611979 -3.276042,4.803385 -2.169271,2.169271 -4.803385,3.276042 Q 19.054687,30.886068 16,30.886068 q -3.054687,0 -5.688802,-1.106771 Q 7.6770835,28.672526 5.5078127,26.503255 3.3164065,24.311849 2.2317712,21.69987 1.1471358,19.065756 1.1471358,16.033204 q 0,-3.098959 1.0846354,-5.710938 Q 3.3164065,7.6881517 5.5078127,5.4967455 7.6770835,3.3274747 10.311198,2.2207039 Z m 7.570312,4.0286457 v 7.9023434 h 7.880208 v 3.763021 H 17.88151 v 7.902343 H 14.11849 V 17.914714 H 6.2382815 V 14.151693 H 14.11849 V 6.2493496 Z"
       style="font-style:normal;font-variant:normal;font-weight:normal;font-stretch:normal;font-size:45.33333206px;font-family:sans-serif;-inkscape-font-specification:'sans-serif, Normal';font-variant-ligatures:normal;font-variant-caps:normal;font-variant-numeric:normal;font-feature-settings:normal;text-align:start;writing-mode:lr-tb;text-anchor:start"
       id="path10298" />
  </g>
</svg>
